<svg width="24" height="24" viewBox="0 0 24 24" fill="none" xmlns="http://www.w3.org/2000/svg">
<path fill-rule="evenodd" clip-rule="evenodd" d="M3.28768 20.7124C2.95891 20.3836 2.30138 20.3836 1.97261 20.7124C1.64384 21.0412 1.64384 21.6987 1.97261 22.0275C2.30138 22.3562 2.95891 22.3562 3.28768 22.0275C3.61644 21.6987 3.61644 21.0412 3.28768 20.7124ZM7.89042 12.822L0.986308 19.7261C6.70552e-06 20.7124 6.70552e-06 22.0275 0.986308 23.0138C1.97261 24.0001 3.61644 24.0001 4.27398 23.0138L12.1644 15.1234C11.8356 14.7946 11.5069 14.7946 11.1781 15.1234L10.5206 15.4521L7.89042 12.822ZM15.7808 16.1097C16.1096 15.7809 16.4384 15.7809 16.7671 16.1097L21.3699 20.7124C21.6986 21.0412 21.6986 21.3699 21.3699 21.3699C21.0411 21.6987 20.7123 21.6987 20.7123 21.3699L15.7808 16.7672C15.7808 16.4384 15.7808 16.1097 15.7808 16.1097ZM0.328774 0.328846L2.30138 3.94528L3.28768 4.93159L3.61644 4.60282L10.1918 11.1782L9.20548 12.822L10.8493 14.4658C11.5069 13.8083 12.4932 14.1371 13.1507 14.7946C13.8082 15.4521 13.8082 16.4384 13.4795 17.096L20.0548 23.6713C20.7123 23.6713 21.6986 23.3425 22.3562 22.3562C23.0137 21.6987 23.6712 20.7124 23.6712 20.0549L17.0959 13.4795C16.4384 13.8083 15.4521 13.8083 14.7945 13.1508C14.137 12.4932 13.8082 11.5069 14.137 10.5206L12.8219 9.20556L11.5069 10.5206L4.93151 3.94528V3.28775L3.94521 2.30145L0.328774 0.328846ZM19.726 0.328846C18.0822 7.86185e-05 16.1096 0.328846 14.7945 1.64391C13.1507 3.28775 12.8219 5.26035 13.4795 7.23296L12.8219 7.89049L15.4521 10.5206L15.1233 11.1782C14.7945 11.5069 15.1233 11.8357 15.1233 12.1645L16.7671 10.5206C18.7397 11.1782 20.7123 10.8494 22.3562 9.20556C23.6712 7.89049 24.3288 5.91789 23.6712 3.94528L20.3836 7.23296L17.4247 6.24665L16.7671 3.28775L19.726 0.328846Z" fill="#2D2A25"/>
</svg>
