<svg width="70" height="65" viewBox="0 0 70 65" fill="none" xmlns="http://www.w3.org/2000/svg">
<path fill-rule="evenodd" clip-rule="evenodd" d="M22.5 42.9167V46.6667H18.75L22.5 42.9167ZM0 65V59.1667L26.6667 33.3333V53.3333L22.5 57.5V50.8333H14.5833C9.58333 55.4167 5 60 0 65ZM33.3333 26.6667H37.5V35H45.4167L40.8333 39.1667H33.3333V26.6667ZM45 22.5C46.6667 22.5 47.5 23.75 47.5 25C47.5 26.6667 46.25 27.5 45 27.5C43.3333 27.5 42.5 26.25 42.5 25C42.0833 23.75 43.3333 22.5 45 22.5ZM45 17.9167C48.75 17.9167 52.0833 21.25 52.0833 25C52.0833 28.75 48.75 32.0833 45 32.0833C41.25 32.0833 37.9167 29.1667 37.9167 25C37.9167 21.25 40.8333 17.9167 45 17.9167ZM28.3333 32.0833H32.5V40.4167H40L35.4167 44.5833H28.3333V32.0833ZM70 0V6.25L57.5 18.3333V22.9167L53.3333 27.0833V18.75L46.6667 13.3333L50 10.4167L55.4167 14.5833C60 9.58333 65 5 70 0Z" fill="#FFA926"/>
<path fill-rule="evenodd" clip-rule="evenodd" d="M66.6667 64.1667H3.33331L8.33331 59.1667H61.25V16.6667L66.6667 11.6667V64.1667ZM8.74998 6.25V48.3333L3.74998 53.3333V1.25H66.6667L61.6667 6.25H8.74998Z" fill="#D8D8D9"/>
</svg>
